<svg width="72" height="48" viewBox="0 0 72 48" fill="none" xmlns="http://www.w3.org/2000/svg">
<g clip-path="url(#clip0_616_7)">
<path d="M8.4666 39.5457H5.78995L5.42346 40.3984H3.98535L6.90996 33.7365H7.35627L10.2712 40.3984H8.83309L8.4666 39.5457ZM7.12767 36.2353L6.25561 38.4462H8.00094L7.12767 36.2353Z" fill="#FAFAFA"/>
<path d="M14.8564 39.2686V40.3982H10.5444V40.0414L12.8933 36.621H10.773V35.4913H14.837V35.8481L12.5075 39.2686H14.8564Z" fill="#FAFAFA"/>
<path d="M19.3983 40.3986H18.1695V39.9232C17.8126 40.2897 17.2974 40.5183 16.6721 40.5183C15.6307 40.5183 14.9775 39.9135 14.9775 39.0512C14.9775 38.1682 15.6912 37.6239 16.8317 37.6239H18.0606V37.4062C18.0606 36.8607 17.7437 36.5438 17.1486 36.5438C16.643 36.5438 16.2862 36.7519 15.8496 37.2175L15.1553 36.3951C15.7202 35.7214 16.4338 35.3839 17.2962 35.3839C18.5746 35.3839 19.3983 36.1278 19.3983 37.486V40.3986ZM18.0594 38.5057H17.0083C16.5717 38.5057 16.3237 38.6738 16.3237 39.0016C16.3237 39.3293 16.6007 39.5374 17.0277 39.5374C17.6131 39.5374 18.0582 39.131 18.0582 38.5661V38.5057H18.0594Z" fill="#FAFAFA"/>
<path d="M27.8539 40.3987H26.5162V37.5443C26.5162 36.9589 26.1691 36.5924 25.6441 36.5924C25.1192 36.5924 24.7418 36.9686 24.7418 37.5141V40.3987H23.4041V37.5443C23.4041 36.9589 23.057 36.5924 22.532 36.5924C21.9865 36.5924 21.6297 36.9589 21.6297 37.5443V40.3987H20.292V35.4918H21.5209V35.9284C21.8474 35.5813 22.3433 35.3829 22.9082 35.3829C23.5529 35.3829 24.0379 35.6212 24.3657 36.0869C24.7527 35.6502 25.3272 35.3829 26.0009 35.3829C27.1512 35.3829 27.8551 36.1655 27.8551 37.3556V40.3987H27.8539Z" fill="#FAFAFA"/>
<path d="M32.8515 40.3986H31.6226V39.9232C31.2658 40.2897 30.7505 40.5183 30.1252 40.5183C29.0838 40.5183 28.4307 39.9135 28.4307 39.0512C28.4307 38.1682 29.1443 37.6239 30.2849 37.6239H31.5137V37.4062C31.5137 36.8607 31.1968 36.5438 30.6018 36.5438C30.0962 36.5438 29.7394 36.7519 29.3027 37.2175L28.6085 36.3951C29.1733 35.7214 29.8869 35.3839 30.7493 35.3839C32.0278 35.3839 32.8515 36.1278 32.8515 37.486V40.3986ZM31.5137 38.5057H30.4627C30.026 38.5057 29.7781 38.6738 29.7781 39.0016C29.7781 39.3293 30.0551 39.5374 30.482 39.5374C31.0674 39.5374 31.5125 39.131 31.5125 38.5661V38.5057H31.5137Z" fill="#FAFAFA"/>
<path d="M38.2558 40.3987H36.9278V37.5334C36.9278 36.9686 36.5613 36.5815 36.0158 36.5815C35.4703 36.5815 35.0845 36.9686 35.0845 37.5334V40.3987H33.7456V35.4918H34.9744V35.9381C35.3216 35.591 35.8271 35.3829 36.4113 35.3829C37.5507 35.3829 38.2546 36.1655 38.2546 37.3556V40.3987H38.2558Z" fill="#FAFAFA"/>
<path d="M44.377 33.7377C45.5272 33.7377 46.4985 34.253 47.1322 35.1553L46.1804 35.9379C45.7147 35.2932 45.1099 34.9763 44.3564 34.9763C43.107 34.9763 42.2543 35.8786 42.2543 37.128C42.2543 38.3968 43.136 39.3185 44.435 39.3185C45.1886 39.3185 45.7933 39.0113 46.1598 38.5057V37.9711H44.3552V36.8111H47.4975V38.7439C47.2 39.2689 46.7742 39.7055 46.2191 40.0321C45.6736 40.3587 45.0591 40.5183 44.3758 40.5183C42.4527 40.5582 40.8464 39.0016 40.8767 37.128C40.838 35.2436 42.4442 33.7075 44.377 33.7377Z" fill="#FAFAFA"/>
<path d="M48.1748 32.9639H49.5125V40.3987H48.1748V32.9639Z" fill="#FAFAFA"/>
<path d="M52.7951 35.3834C54.232 35.364 55.4621 36.5433 55.4319 37.9403C55.4621 39.3384 54.2223 40.5371 52.7854 40.508C51.3473 40.5383 50.139 39.3384 50.168 37.9403C50.1378 36.5433 51.357 35.3531 52.7951 35.3834ZM52.7951 36.6025C52.0513 36.6025 51.5263 37.1674 51.5263 37.9511C51.5263 38.7143 52.0513 39.2792 52.7951 39.2792C53.5184 39.2792 54.0639 38.7143 54.0639 37.9511C54.0639 37.1879 53.5184 36.6025 52.7951 36.6025Z" fill="#FAFAFA"/>
<path d="M58.883 40.5183C58.2093 40.5183 57.6541 40.2606 57.307 39.795V40.3997H56.0781V32.9648H57.4159V35.9681C57.7727 35.581 58.2589 35.3827 58.883 35.3827C60.251 35.3827 61.2621 36.4724 61.2621 37.9505C61.2621 39.4273 60.251 40.5183 58.883 40.5183ZM58.635 36.5922C57.9505 36.5922 57.3953 37.0784 57.3953 37.9505C57.3953 38.8334 57.9601 39.2991 58.635 39.2991C59.3583 39.2991 59.9038 38.7645 59.9038 37.9408C59.9038 37.1377 59.3487 36.5922 58.635 36.5922Z" fill="#FAFAFA"/>
<path d="M66.0311 40.3994H64.8023V39.9241C64.4455 40.2906 63.9302 40.5192 63.3049 40.5192C62.2635 40.5192 61.6104 39.9144 61.6104 39.052C61.6104 38.1691 62.324 37.6248 63.4645 37.6248H64.6934V37.4071C64.6934 36.8616 64.3765 36.5447 63.7814 36.5447C63.2759 36.5447 62.919 36.7527 62.4824 37.2184L61.7882 36.3959C62.353 35.7222 63.0666 35.3848 63.929 35.3848C65.2074 35.3848 66.0311 36.1286 66.0311 37.4869V40.3994ZM64.6922 38.5065H63.6411C63.2045 38.5065 62.9565 38.6747 62.9565 39.0024C62.9565 39.3302 63.2335 39.5382 63.6605 39.5382C64.2459 39.5382 64.691 39.1318 64.691 38.567V38.5065H64.6922Z" fill="#FAFAFA"/>
<path d="M66.9238 32.9639H68.2616V40.3987H66.9238V32.9639Z" fill="#FAFAFA"/>
<path d="M6.36304 42.5697C7.22542 42.5697 7.97774 42.9664 8.43614 43.6098L8.13377 43.8505C7.72979 43.2833 7.1081 42.9422 6.37029 42.9422C5.13538 42.9192 4.14116 43.9521 4.16535 45.2016C4.14237 46.4679 5.13659 47.4851 6.37029 47.4694C7.1081 47.4694 7.72979 47.1356 8.13377 46.5683L8.43614 46.809C7.97774 47.4537 7.22421 47.8492 6.36304 47.8492C4.92613 47.8806 3.70694 46.6614 3.73839 45.2088C3.70694 43.7501 4.92613 42.5467 6.36304 42.5697Z" fill="#FAFAFA"/>
<path d="M10.8433 43.9448C11.9149 43.9448 12.7846 44.8144 12.7846 45.8945C12.8075 46.9589 11.8992 47.8745 10.8348 47.8515C9.77893 47.8745 8.87784 46.9589 8.90082 45.8945C8.87905 44.8144 9.78014 43.9218 10.8433 43.9448ZM10.8433 44.31C9.97366 44.31 9.30601 45.0007 9.30601 45.9018C9.30601 46.7872 9.97366 47.4863 10.836 47.4863C11.6984 47.4863 12.3818 46.7872 12.3818 45.9018C12.3818 45.0007 11.6972 44.31 10.8433 44.31Z" fill="#FAFAFA"/>
<path d="M18.9733 47.7727H18.5778V45.4347C18.5778 44.7586 18.2052 44.3086 17.5835 44.3086C16.9546 44.3086 16.4962 44.79 16.4962 45.373V47.7727H16.1079V45.4347C16.1079 44.7586 15.7269 44.3086 15.1065 44.3086C14.4618 44.3086 14.0191 44.7828 14.0191 45.4347V47.7727H13.6309V44.022H14.0034V44.5106C14.2525 44.1453 14.6638 43.9434 15.1609 43.9434C15.7439 43.9434 16.1466 44.2155 16.3414 44.6739C16.5905 44.2385 17.0405 43.9434 17.638 43.9434C18.4762 43.9434 18.9733 44.5263 18.9733 45.4032V47.7727Z" fill="#FAFAFA"/>
<path d="M25.3874 47.7727H24.9919V45.4347C24.9919 44.7586 24.6193 44.3086 23.9976 44.3086C23.3687 44.3086 22.9103 44.79 22.9103 45.373V47.7727H22.522V45.4347C22.522 44.7586 22.141 44.3086 21.5205 44.3086C20.8759 44.3086 20.4332 44.7828 20.4332 45.4347V47.7727H20.0449V44.022H20.4175V44.5106C20.6666 44.1453 21.0779 43.9434 21.575 43.9434C22.158 43.9434 22.5607 44.2155 22.7555 44.6739C23.0046 44.2385 23.4546 43.9434 24.0521 43.9434C24.8903 43.9434 25.3874 44.5263 25.3874 45.4032V47.7727Z" fill="#FAFAFA"/>
<path d="M28.1123 43.9448C29.184 43.9448 30.0536 44.8144 30.0536 45.8945C30.0766 46.9589 29.1682 47.8745 28.1039 47.8515C27.048 47.8745 26.1469 46.9589 26.1699 45.8945C26.1469 44.8144 27.048 43.9218 28.1123 43.9448ZM28.1123 44.31C27.2427 44.31 26.575 45.0007 26.575 45.9018C26.575 46.7872 27.2427 47.4863 28.1051 47.4863C28.9675 47.4863 29.6508 46.7872 29.6508 45.9018C29.6496 45.0007 28.9662 44.31 28.1123 44.31Z" fill="#FAFAFA"/>
<path d="M34.3792 41.9492V47.7743H34.0067V47.0135C33.7273 47.5336 33.1286 47.8517 32.4767 47.8517C31.428 47.8517 30.6128 46.982 30.6128 45.9019C30.6128 44.8073 31.405 43.9449 32.4767 43.9449C33.1213 43.9449 33.7031 44.2558 33.991 44.7529V41.9492H34.3792ZM32.5154 44.3102C31.653 44.3102 31.0168 44.9936 31.0168 45.8947C31.0168 46.7873 31.653 47.4864 32.5154 47.4864C33.2919 47.4864 33.991 46.9736 33.991 45.9019C33.991 44.8218 33.2919 44.3102 32.5154 44.3102Z" fill="#FAFAFA"/>
<path d="M35.7056 42.2363C35.8918 42.2363 36.0479 42.3912 36.0479 42.5786C36.0479 42.7661 35.893 42.9209 35.7056 42.9209C35.5108 42.9209 35.3633 42.7661 35.3633 42.5786C35.3633 42.3912 35.5121 42.2363 35.7056 42.2363ZM35.512 44.0228H35.9003V47.7736H35.512V44.0228Z" fill="#FAFAFA"/>
<path d="M38.9133 47.7732C38.7185 47.8276 38.525 47.8506 38.3303 47.8506C37.6239 47.8506 37.1812 47.501 37.1812 46.7245V44.3792H36.5293V44.0224H37.1812V42.958H37.5779V44.0224H38.7899V44.3792H37.5779V46.7088C37.5779 47.276 37.8888 47.4926 38.3932 47.4926C38.5407 47.4926 38.7197 47.4696 38.9133 47.4309V47.7732Z" fill="#FAFAFA"/>
<path d="M42.6639 44.0227L40.7929 48.3866C40.5207 48.9998 40.1567 49.249 39.6209 49.249C39.4419 49.249 39.2641 49.226 39.0923 49.1789V48.8366C39.2556 48.8753 39.4189 48.891 39.5664 48.891C39.9619 48.891 40.2425 48.7204 40.4361 48.2463L40.6767 47.6948L39.0693 44.0215H39.4963L40.886 47.2521L42.2454 44.0215H42.6639V44.0227Z" fill="#FAFAFA"/>
<path d="M45.2261 42.6484H45.6301V47.4091H48.1543V47.7744H45.2261V42.6484Z" fill="#FAFAFA"/>
<path d="M48.9448 42.2363C49.1311 42.2363 49.2871 42.3912 49.2871 42.5786C49.2871 42.7661 49.1323 42.9209 48.9448 42.9209C48.7501 42.9209 48.6025 42.7661 48.6025 42.5786C48.6025 42.3912 48.7501 42.2363 48.9448 42.2363ZM48.7501 44.0228H49.1384V47.7736H48.7501V44.0228Z" fill="#FAFAFA"/>
<path d="M55.6159 47.7727H55.2203V45.4347C55.2203 44.7586 54.8478 44.3086 54.2261 44.3086C53.5972 44.3086 53.1388 44.79 53.1388 45.373V47.7727H52.7505V45.4347C52.7505 44.7586 52.3695 44.3086 51.749 44.3086C51.1044 44.3086 50.6617 44.7828 50.6617 45.4347V47.7727H50.2734V44.022H50.646V44.5106C50.8951 44.1453 51.3064 43.9434 51.8035 43.9434C52.3865 43.9434 52.7892 44.2155 52.984 44.6739C53.2331 44.2385 53.6831 43.9434 54.2806 43.9434C55.1187 43.9434 55.6159 44.5263 55.6159 45.4032V47.7727Z" fill="#FAFAFA"/>
<path d="M56.8809 42.2363C57.0672 42.2363 57.2232 42.3912 57.2232 42.5786C57.2232 42.7661 57.0684 42.9209 56.8809 42.9209C56.6862 42.9209 56.5386 42.7661 56.5386 42.5786C56.5386 42.3912 56.6862 42.2363 56.8809 42.2363ZM56.6862 44.0228H57.0745V47.7736H56.6862V44.0228Z" fill="#FAFAFA"/>
<path d="M60.088 47.7732C59.8933 47.8276 59.6998 47.8506 59.5051 47.8506C58.7987 47.8506 58.356 47.501 58.356 46.7245V44.3792H57.7041V44.0224H58.356V42.958H58.7527V44.0224H59.9647V44.3792H58.7527V46.7088C58.7527 47.276 59.0636 47.4926 59.568 47.4926C59.7155 47.4926 59.8945 47.4696 60.088 47.4309V47.7732Z" fill="#FAFAFA"/>
<path d="M60.755 45.9876C60.8022 46.8657 61.4541 47.4862 62.3008 47.4862C62.7979 47.4862 63.2175 47.2915 63.5514 46.8959L63.7993 47.1524C63.4268 47.5878 62.891 47.8514 62.2923 47.8514C61.2279 47.8744 60.3269 46.9661 60.3511 45.9017C60.3281 44.8374 61.2134 43.9218 62.2463 43.9448C63.1704 43.9448 63.9239 44.6124 63.9239 45.6139C63.9239 45.7772 63.9166 45.9017 63.8924 45.9864H60.755V45.9876ZM63.5199 45.6381C63.5514 44.8229 62.9527 44.3028 62.2306 44.3028C61.8496 44.3028 61.5315 44.4274 61.2606 44.6838C60.9885 44.9317 60.8252 45.251 60.772 45.6393H63.5199V45.6381Z" fill="#FAFAFA"/>
<path d="M68.2488 41.9492V47.7743H67.8763V47.0135C67.5969 47.5336 66.9982 47.8517 66.3463 47.8517C65.2976 47.8517 64.4824 46.982 64.4824 45.9019C64.4824 44.8073 65.2746 43.9449 66.3463 43.9449C66.9909 43.9449 67.5739 44.2558 67.8606 44.7529V41.9492H68.2488ZM66.385 44.3102C65.5226 44.3102 64.8864 44.9936 64.8864 45.8947C64.8864 46.7873 65.5226 47.4864 66.385 47.4864C67.1615 47.4864 67.8606 46.9736 67.8606 45.9019C67.8606 44.8218 67.1615 44.3102 66.385 44.3102Z" fill="#FAFAFA"/>
<path d="M43.9344 4.58017C42.9813 2.40425 40.8308 1 38.4553 1H26.9976C28.4925 1 29.846 1.60597 30.8257 2.58568C31.2938 3.05376 31.676 3.60651 31.9481 4.21731C31.953 4.2282 31.9578 4.23908 31.9638 4.25118L41.0679 25.0125C42.021 27.1872 44.1715 28.5927 46.547 28.5927H54.4645L49.1995 16.5864L43.9344 4.58017Z" fill="#FAFAFA"/>
<path d="M27.7073 7.60243L27.7109 7.5976V7.60364C27.7327 9.4155 26.62 12.7997 26.2269 13.4867C26.9598 13.1505 27.636 12.6897 28.2226 12.1357C28.2238 12.1333 28.2274 12.1296 28.231 12.1272C29.1261 11.3652 29.7139 10.4146 30.055 9.36833C30.0574 9.36712 30.0562 9.36591 30.0562 9.36349C30.5182 8.10559 30.6392 6.7207 30.384 5.40233C30.344 5.1955 30.2957 4.99109 30.24 4.7891C30.24 4.78789 30.24 4.78547 30.2388 4.78426C30.1009 4.04162 29.8941 3.31349 29.6365 2.62528C29.6087 2.54908 29.5748 2.46804 29.5059 2.42692C29.4998 2.42329 29.4925 2.41966 29.4853 2.41724C29.478 2.41482 29.4708 2.41361 29.4635 2.4124C29.3837 2.40273 29.3063 2.44506 29.2386 2.4886C28.6132 2.87444 28.0036 3.32317 27.4388 3.82512C27.4364 3.82633 27.4352 3.82754 27.434 3.82875C27.2659 3.95454 27.1026 4.08637 26.9441 4.22547C25.9342 5.11083 25.1807 6.27923 24.7743 7.55526C24.7743 7.55647 24.7719 7.55768 24.7731 7.5601C24.4005 8.59545 24.282 9.70699 24.5227 10.8572C24.5251 10.8609 24.5263 10.8657 24.5251 10.8693C24.6485 11.6664 24.9001 12.4453 25.2726 13.1602C25.3839 12.3764 26.5789 9.0212 27.7073 7.60243Z" fill="#FAFAFA"/>
<path d="M23.5175 12.2353C22.9563 11.0185 22.0612 9.95411 20.9485 9.203C20.7743 9.08447 20.5953 8.97441 20.4139 8.86918C20.4139 8.86918 20.4115 8.86797 20.409 8.86797C19.7861 8.4398 19.1257 8.0709 18.4557 7.7661C18.3831 7.73224 18.3021 7.69958 18.2235 7.72014C18.2174 7.72135 18.2077 7.72256 18.2017 7.7274C18.1944 7.72982 18.1884 7.73587 18.1835 7.7395C18.1194 7.78909 18.0952 7.87375 18.0783 7.95116C17.909 8.66719 17.7953 9.41467 17.7517 10.1694C17.7517 10.1706 17.7505 10.1742 17.7505 10.1742C17.7215 10.3823 17.6997 10.5915 17.684 10.8008C17.5969 12.1409 17.8896 13.5004 18.5053 14.6893C18.5065 14.6918 18.5053 14.6942 18.5065 14.6942C18.9758 15.6896 19.6785 16.5593 20.6606 17.2015C20.6655 17.2027 20.6703 17.2063 20.6715 17.2088C21.3222 17.6853 22.0504 18.059 22.8208 18.3009C22.3443 17.6684 20.8166 14.4511 20.6122 12.6489L20.611 12.6441L20.6147 12.6489C21.9125 13.9153 23.5175 17.0939 23.7255 17.8595C24.0073 17.1023 24.1585 16.2992 24.1815 15.4925C24.1803 15.49 24.1815 15.484 24.1827 15.4804C24.2771 14.3108 24.0207 13.2222 23.5211 12.2401C23.5199 12.2377 23.5175 12.2377 23.5175 12.2353Z" fill="#FAFAFA"/>
<path d="M35.1505 13.5503C35.1481 13.543 35.1468 13.5345 35.1432 13.5285C35.1396 13.5212 35.1347 13.5152 35.1311 13.5103C35.0815 13.4462 34.9969 13.422 34.9182 13.4039C34.2034 13.2346 33.4547 13.1209 32.7012 13.0773L32.6951 13.0749C32.4871 13.0459 32.2779 13.0241 32.0698 13.0108C30.7309 12.9213 29.3714 13.214 28.18 13.8309C28.18 13.8321 28.1764 13.8309 28.1764 13.8333C27.1809 14.3026 26.3113 15.0053 25.6678 15.9874C25.6666 15.9923 25.6642 15.9971 25.6606 15.9983C25.184 16.6502 24.8115 17.3772 24.5684 18.1476C25.2009 17.6711 28.4195 16.1434 30.2205 15.939L30.2265 15.9378L30.2217 15.9415C28.9553 17.2393 25.7755 18.8443 25.011 19.0523C25.7682 19.3341 26.5713 19.4853 27.3781 19.5083C27.3805 19.5071 27.3865 19.5083 27.389 19.5083C28.561 19.6027 29.6484 19.3474 30.6281 18.8479C30.6305 18.8491 30.6317 18.8455 30.6341 18.8455C31.8485 18.2831 32.9141 17.3892 33.6664 16.2765C33.7849 16.1023 33.895 15.9233 33.9978 15.7407C33.999 15.7407 34.0002 15.7383 34.0002 15.7371C34.4284 15.1142 34.7973 14.4538 35.1021 13.7837C35.1372 13.7099 35.171 13.6289 35.1505 13.5503Z" fill="#FAFAFA"/>
<path d="M23.5345 19.7893C21.1675 18.9789 18.5913 20.2405 17.7797 22.6075C16.9693 24.9745 18.2308 27.5508 20.5978 28.3624C22.9648 29.1728 25.5411 27.9112 26.3527 25.5442C27.163 23.1772 25.9015 20.6009 23.5345 19.7893Z" fill="#FAFAFA"/>
</g>
<defs>
<clipPath id="clip0_616_7">
<rect width="72" height="48" fill="white"/>
</clipPath>
</defs>
</svg>
