<svg width="80" height="80" viewBox="0 0 80 80" fill="none" xmlns="http://www.w3.org/2000/svg">
<path d="M9.40739 56.0229H6.43333L6.02613 56.9704H4.42822L7.67779 49.5682H8.17369L11.4125 56.9704H9.81459L9.40739 56.0229ZM7.91969 52.3447L6.95073 54.8013H8.88999L7.91969 52.3447Z" fill="#1F6E10"/>
<path d="M16.5073 55.7149V56.9701H11.7163V56.5736L14.3262 52.7731H11.9703V51.5179H16.4858V51.9144L13.8975 55.7149H16.5073Z" fill="#1F6E10"/>
<path d="M21.5536 56.9701H20.1882V56.442C19.7917 56.8492 19.2192 57.1032 18.5244 57.1032C17.3673 57.1032 16.6416 56.4312 16.6416 55.473C16.6416 54.492 17.4345 53.8872 18.7018 53.8872H20.0672V53.6453C20.0672 53.0392 19.7151 52.6871 19.0539 52.6871C18.4922 52.6871 18.0957 52.9183 17.6106 53.4357L16.8392 52.5218C17.4668 51.7733 18.2597 51.3983 19.2179 51.3983C20.6384 51.3983 21.5536 52.2248 21.5536 53.734V56.9701ZM20.0659 54.8669H18.898C18.4129 54.8669 18.1374 55.0537 18.1374 55.4179C18.1374 55.7821 18.4451 56.0133 18.9195 56.0133C19.57 56.0133 20.0645 55.5617 20.0645 54.9341V54.8669H20.0659Z" fill="#1F6E10"/>
<path d="M30.9488 56.9704H29.4624V53.7989C29.4624 53.1484 29.0767 52.7412 28.4934 52.7412C27.9102 52.7412 27.4909 53.1592 27.4909 53.7653V56.9704H26.0045V53.7989C26.0045 53.1484 25.6188 52.7412 25.0356 52.7412C24.4295 52.7412 24.033 53.1484 24.033 53.7989V56.9704H22.5466V51.5183H23.912V52.0034C24.2749 51.6177 24.8259 51.3973 25.4535 51.3973C26.1698 51.3973 26.7087 51.6621 27.0729 52.1795C27.503 51.6943 28.1413 51.3973 28.8899 51.3973C30.168 51.3973 30.9501 52.2668 30.9501 53.5892V56.9704H30.9488Z" fill="#1F6E10"/>
<path d="M36.5019 56.9701H35.1364V56.442C34.74 56.8492 34.1675 57.1032 33.4727 57.1032C32.3156 57.1032 31.5898 56.4312 31.5898 55.473C31.5898 54.492 32.3828 53.8872 33.6501 53.8872H35.0155V53.6453C35.0155 53.0392 34.6634 52.6871 34.0022 52.6871C33.4404 52.6871 33.044 52.9183 32.5588 53.4357L31.7874 52.5218C32.415 51.7733 33.2079 51.3983 34.1661 51.3983C35.5867 51.3983 36.5019 52.2248 36.5019 53.734V56.9701ZM35.0155 54.8669H33.8476C33.3625 54.8669 33.087 55.0537 33.087 55.4179C33.087 55.7821 33.3947 56.0133 33.8691 56.0133C34.5196 56.0133 35.0141 55.5617 35.0141 54.9341V54.8669H35.0155Z" fill="#1F6E10"/>
<path d="M42.5064 56.9704H41.0309V53.7868C41.0309 53.1592 40.6237 52.7291 40.0176 52.7291C39.4115 52.7291 38.9828 53.1592 38.9828 53.7868V56.9704H37.4951V51.5183H38.8605V52.0142C39.2462 51.6285 39.8079 51.3973 40.457 51.3973C41.723 51.3973 42.5051 52.2668 42.5051 53.5892V56.9704H42.5064Z" fill="#1F6E10"/>
<path d="M49.308 49.5697C50.586 49.5697 51.6652 50.1422 52.3694 51.1448L51.3117 52.0143C50.7943 51.298 50.1224 50.9459 49.2851 50.9459C47.8969 50.9459 46.9494 51.9484 46.9494 53.3367C46.9494 54.7465 47.9291 55.7705 49.3725 55.7705C50.2097 55.7705 50.8817 55.4292 51.2889 54.8674V54.2734H49.2838V52.9846H52.7752V55.1322C52.4446 55.7154 51.9716 56.2006 51.3547 56.5634C50.7486 56.9263 50.0659 57.1037 49.3066 57.1037C47.1698 57.148 45.3851 55.4184 45.4187 53.3367C45.3757 51.2429 47.1604 49.5361 49.308 49.5697Z" fill="#1F6E10"/>
<path d="M53.5278 48.7098H55.0142V56.9707H53.5278V48.7098Z" fill="#1F6E10"/>
<path d="M58.6615 51.3975C60.2581 51.376 61.6248 52.6863 61.5912 54.2385C61.6248 55.792 60.2473 57.1238 58.6508 57.0915C57.0529 57.1251 55.7103 55.792 55.7426 54.2385C55.709 52.6863 57.0636 51.3639 58.6615 51.3975ZM58.6615 52.7521C57.835 52.7521 57.2518 53.3797 57.2518 54.2506C57.2518 55.0985 57.835 55.7261 58.6615 55.7261C59.4652 55.7261 60.0713 55.0985 60.0713 54.2506C60.0713 53.4026 59.4652 52.7521 58.6615 52.7521Z" fill="#1F6E10"/>
<path d="M65.4254 57.1035C64.6768 57.1035 64.0599 56.8173 63.6742 56.2999V56.9718H62.3088V48.7108H63.7952V52.0477C64.1917 51.6177 64.7319 51.3973 65.4254 51.3973C66.9453 51.3973 68.0688 52.6081 68.0688 54.2504C68.0688 55.8913 66.9453 57.1035 65.4254 57.1035ZM65.1499 52.7412C64.3892 52.7412 63.7724 53.2814 63.7724 54.2504C63.7724 55.2314 64.4 55.7488 65.1499 55.7488C65.9535 55.7488 66.5596 55.1548 66.5596 54.2396C66.5596 53.3473 65.9428 52.7412 65.1499 52.7412Z" fill="#1F6E10"/>
<path d="M73.3678 56.9706H72.0024V56.4425C71.6059 56.8497 71.0334 57.1037 70.3386 57.1037C69.1815 57.1037 68.4558 56.4317 68.4558 55.4735C68.4558 54.4925 69.2487 53.8877 70.516 53.8877H71.8814V53.6458C71.8814 53.0397 71.5293 52.6876 70.8681 52.6876C70.3064 52.6876 69.9099 52.9188 69.4248 53.4362L68.6534 52.5223C69.281 51.7738 70.0739 51.3988 71.0321 51.3988C72.4526 51.3988 73.3678 52.2253 73.3678 53.7345V56.9706ZM71.8801 54.8674H70.7122C70.2271 54.8674 69.9516 55.0542 69.9516 55.4184C69.9516 55.7826 70.2593 56.0138 70.7337 56.0138C71.3842 56.0138 71.8787 55.5622 71.8787 54.9346V54.8674H71.8801Z" fill="#1F6E10"/>
<path d="M74.3596 48.7098H75.846V56.9707H74.3596V48.7098Z" fill="#1F6E10"/>
<path d="M7.07026 59.3829C8.02846 59.3829 8.86437 59.8237 9.37371 60.5387L9.03773 60.8061C8.58887 60.1758 7.8981 59.7969 7.07832 59.7969C5.70619 59.7713 4.6015 60.919 4.62838 62.3073C4.60285 63.7143 5.70754 64.8446 7.07832 64.8271C7.8981 64.8271 8.58887 64.4562 9.03773 63.8259L9.37371 64.0933C8.86437 64.8096 8.02712 65.2491 7.07026 65.2491C5.4737 65.284 4.11904 63.9294 4.15398 62.3153C4.11904 60.6946 5.4737 59.3574 7.07026 59.3829Z" fill="#1F6E10"/>
<path d="M12.0482 60.911C13.2389 60.911 14.2052 61.8773 14.2052 63.0774C14.2307 64.26 13.2214 65.2774 12.0388 65.2519C10.8656 65.2774 9.86435 64.26 9.88988 63.0774C9.86569 61.8773 10.8669 60.8855 12.0482 60.911ZM12.0482 61.3169C11.0819 61.3169 10.3401 62.0842 10.3401 63.0855C10.3401 64.0692 11.0819 64.846 12.0401 64.846C12.9983 64.846 13.7576 64.0692 13.7576 63.0855C13.7576 62.0842 12.997 61.3169 12.0482 61.3169Z" fill="#1F6E10"/>
<path d="M21.0818 65.1644H20.6423V62.5666C20.6423 61.8153 20.2284 61.3154 19.5376 61.3154C18.8388 61.3154 18.3295 61.8503 18.3295 62.498V65.1644H17.8981V62.5666C17.8981 61.8153 17.4747 61.3154 16.7853 61.3154C16.069 61.3154 15.5771 61.8422 15.5771 62.5666V65.1644H15.1458V60.9969H15.5597V61.5398C15.8365 61.134 16.2934 60.9095 16.8458 60.9095C17.4935 60.9095 17.9411 61.2119 18.1574 61.7213C18.4343 61.2375 18.9342 60.9095 19.5981 60.9095C20.5294 60.9095 21.0818 61.5573 21.0818 62.5316V65.1644Z" fill="#1F6E10"/>
<path d="M28.2085 65.1644H27.7691V62.5666C27.7691 61.8153 27.3552 61.3154 26.6644 61.3154C25.9655 61.3154 25.4562 61.8503 25.4562 62.498V65.1644H25.0248V62.5666C25.0248 61.8153 24.6015 61.3154 23.912 61.3154C23.1957 61.3154 22.7039 61.8422 22.7039 62.5666V65.1644H22.2725V60.9969H22.6864V61.5398C22.9632 61.134 23.4202 60.9095 23.9725 60.9095C24.6203 60.9095 25.0678 61.2119 25.2842 61.7213C25.561 61.2375 26.061 60.9095 26.7249 60.9095C27.6562 60.9095 28.2085 61.5573 28.2085 62.5316V65.1644Z" fill="#1F6E10"/>
<path d="M31.2364 60.911C32.4271 60.911 33.3934 61.8773 33.3934 63.0774C33.4189 64.26 32.4096 65.2774 31.227 65.2519C30.0538 65.2774 29.0526 64.26 29.0781 63.0774C29.0526 61.8773 30.0538 60.8855 31.2364 60.911ZM31.2364 61.3169C30.2702 61.3169 29.5283 62.0842 29.5283 63.0855C29.5283 64.0692 30.2702 64.846 31.2284 64.846C32.1866 64.846 32.9459 64.0692 32.9459 63.0855C32.9445 62.0842 32.1852 61.3169 31.2364 61.3169Z" fill="#1F6E10"/>
<path d="M38.1991 58.6937V65.166H37.7852V64.3207C37.4747 64.8985 36.8095 65.252 36.0851 65.252C34.92 65.252 34.0142 64.2857 34.0142 63.0856C34.0142 61.8694 34.8944 60.9112 36.0851 60.9112C36.8014 60.9112 37.4478 61.2566 37.7677 61.8089V58.6937H38.1991ZM36.1281 61.317C35.1699 61.317 34.463 62.0763 34.463 63.0775C34.463 64.0694 35.1699 64.8461 36.1281 64.8461C36.9909 64.8461 37.7677 64.2763 37.7677 63.0856C37.7677 61.8855 36.9909 61.317 36.1281 61.317Z" fill="#1F6E10"/>
<path d="M39.6733 59.0126C39.8803 59.0126 40.0536 59.1846 40.0536 59.3929C40.0536 59.6012 39.8816 59.7732 39.6733 59.7732C39.4569 59.7732 39.293 59.6012 39.293 59.3929C39.293 59.1846 39.4583 59.0126 39.6733 59.0126ZM39.4583 60.9976H39.8897V65.1651H39.4583V60.9976Z" fill="#1F6E10"/>
<path d="M43.2375 65.1645C43.0211 65.225 42.8061 65.2505 42.5897 65.2505C41.8049 65.2505 41.313 64.8621 41.313 63.9993V61.3934H40.5886V60.997H41.313V59.8143H41.7538V60.997H43.1004V61.3934H41.7538V63.9819C41.7538 64.6122 42.0992 64.8527 42.6596 64.8527C42.8235 64.8527 43.0224 64.8272 43.2375 64.7842V65.1645Z" fill="#1F6E10"/>
<path d="M47.4049 60.9973L45.3259 65.8461C45.0235 66.5275 44.619 66.8043 44.0237 66.8043C43.8248 66.8043 43.6273 66.7788 43.4364 66.7264V66.346C43.6178 66.3891 43.7993 66.4065 43.9632 66.4065C44.4027 66.4065 44.7144 66.217 44.9295 65.6902L45.1969 65.0774L43.4109 60.996H43.8853L45.4294 64.5855L46.9399 60.996H47.4049V60.9973Z" fill="#1F6E10"/>
<path d="M50.2512 59.4705H50.7001V64.7601H53.5048V65.1659H50.2512V59.4705Z" fill="#1F6E10"/>
<path d="M54.3837 59.0126C54.5907 59.0126 54.7641 59.1846 54.7641 59.3929C54.7641 59.6012 54.5921 59.7732 54.3837 59.7732C54.1674 59.7732 54.0034 59.6012 54.0034 59.3929C54.0034 59.1846 54.1674 59.0126 54.3837 59.0126ZM54.1674 60.9976H54.5988V65.1651H54.1674V60.9976Z" fill="#1F6E10"/>
<path d="M61.7954 65.1644H61.3559V62.5666C61.3559 61.8153 60.942 61.3154 60.2513 61.3154C59.5524 61.3154 59.0431 61.8503 59.0431 62.498V65.1644H58.6117V62.5666C58.6117 61.8153 58.1884 61.3154 57.4989 61.3154C56.7826 61.3154 56.2908 61.8422 56.2908 62.5666V65.1644H55.8594V60.9969H56.2733V61.5398C56.5501 61.134 57.0071 60.9095 57.5594 60.9095C58.2072 60.9095 58.6547 61.2119 58.8711 61.7213C59.1479 61.2375 59.6478 60.9095 60.3117 60.9095C61.2431 60.9095 61.7954 61.5573 61.7954 62.5316V65.1644Z" fill="#1F6E10"/>
<path d="M63.2012 59.0126C63.4082 59.0126 63.5815 59.1846 63.5815 59.3929C63.5815 59.6012 63.4095 59.7732 63.2012 59.7732C62.9848 59.7732 62.8208 59.6012 62.8208 59.3929C62.8208 59.1846 62.9848 59.0126 63.2012 59.0126ZM62.9848 60.9976H63.4162V65.1651H62.9848V60.9976Z" fill="#1F6E10"/>
<path d="M66.765 65.1645C66.5487 65.225 66.3336 65.2505 66.1173 65.2505C65.3324 65.2505 64.8406 64.8621 64.8406 63.9993V61.3934H64.1162V60.997H64.8406V59.8143H65.2814V60.997H66.628V61.3934H65.2814V63.9819C65.2814 64.6122 65.6268 64.8527 66.1872 64.8527C66.3511 64.8527 66.55 64.8272 66.765 64.7842V65.1645Z" fill="#1F6E10"/>
<path d="M67.5058 63.1808C67.5582 64.1565 68.2825 64.8459 69.2233 64.8459C69.7756 64.8459 70.2419 64.6295 70.6128 64.1901L70.8883 64.475C70.4744 64.9588 69.8791 65.2518 69.2138 65.2518C68.0312 65.2773 67.03 64.268 67.0569 63.0854C67.0314 61.9028 68.0151 60.8855 69.1628 60.911C70.1895 60.911 71.0267 61.6528 71.0267 62.7656C71.0267 62.947 71.0187 63.0854 70.9918 63.1795H67.5058V63.1808ZM70.5779 62.7924C70.6128 61.8867 69.9476 61.3088 69.1453 61.3088C68.722 61.3088 68.3685 61.4472 68.0675 61.7321C67.7651 62.0076 67.5837 62.3624 67.5246 62.7938H70.5779V62.7924Z" fill="#1F6E10"/>
<path d="M75.8324 58.6937V65.166H75.4185V64.3207C75.108 64.8985 74.4428 65.252 73.7184 65.252C72.5532 65.252 71.6475 64.2857 71.6475 63.0856C71.6475 61.8694 72.5277 60.9112 73.7184 60.9112C74.4347 60.9112 75.0825 61.2566 75.401 61.8089V58.6937H75.8324ZM73.7614 61.317C72.8032 61.317 72.0963 62.0763 72.0963 63.0775C72.0963 64.0694 72.8032 64.8461 73.7614 64.8461C74.6242 64.8461 75.401 64.2763 75.401 63.0856C75.401 61.8855 74.6242 61.317 73.7614 61.317Z" fill="#1F6E10"/>
<path d="M48.8161 17.1723C47.7571 14.7546 45.3676 13.1943 42.7282 13.1943H29.9973C31.6584 13.1943 33.1622 13.8676 34.2508 14.9562C34.7709 15.4763 35.1956 16.0905 35.4979 16.7691C35.5033 16.7812 35.5087 16.7933 35.5154 16.8068L45.631 39.8749C46.69 42.2912 49.0795 43.8529 51.7189 43.8529H60.5161L54.6661 30.5126L48.8161 17.1723Z" fill="#1F6E10"/>
<path d="M30.7863 20.5309L30.7903 20.5256V20.5323C30.8145 22.5455 29.5781 26.3057 29.1413 27.069C29.9557 26.6954 30.707 26.1834 31.3588 25.5679C31.3601 25.5652 31.3641 25.5612 31.3682 25.5585C32.3627 24.7118 33.0158 23.6555 33.3948 22.493C33.3975 22.4917 33.3961 22.4904 33.3961 22.4877C33.9095 21.09 34.0439 19.5512 33.7603 18.0864C33.716 17.8566 33.6622 17.6295 33.6004 17.405C33.6004 17.4037 33.6004 17.401 33.599 17.3996C33.4458 16.5745 33.216 15.7655 32.9298 15.0008C32.8989 14.9161 32.8612 14.8261 32.7846 14.7804C32.7779 14.7763 32.7699 14.7723 32.7618 14.7696C32.7537 14.7669 32.7457 14.7656 32.7376 14.7642C32.6489 14.7535 32.5629 14.8005 32.4876 14.8489C31.7928 15.2776 31.1155 15.7762 30.4879 16.3339C30.4852 16.3353 30.4839 16.3366 30.4825 16.338C30.2957 16.4777 30.1143 16.6242 29.9383 16.7788C28.8161 17.7625 27.9789 19.0607 27.5273 20.4785C27.5273 20.4799 27.5246 20.4812 27.526 20.4839C27.1121 21.6343 26.9804 22.8693 27.2478 24.1474C27.2505 24.1514 27.2518 24.1568 27.2505 24.1608C27.3876 25.0465 27.6671 25.9119 28.081 26.7062C28.2046 25.8353 29.5324 22.1073 30.7863 20.5309Z" fill="#78B11F"/>
<path d="M26.131 25.6782C25.5074 24.3262 24.5129 23.1436 23.2765 22.309C23.083 22.1773 22.8841 22.055 22.6825 21.9381C22.6825 21.9381 22.6798 21.9368 22.6771 21.9368C21.985 21.461 21.2512 21.0511 20.5067 20.7125C20.4261 20.6748 20.336 20.6386 20.2487 20.6614C20.242 20.6628 20.2312 20.6641 20.2245 20.6695C20.2164 20.6722 20.2097 20.6789 20.2043 20.6829C20.1331 20.738 20.1062 20.8321 20.0874 20.9181C19.8993 21.7137 19.7729 22.5442 19.7246 23.3828C19.7246 23.3842 19.7232 23.3882 19.7232 23.3882C19.691 23.6193 19.6668 23.8518 19.6493 24.0843C19.5525 25.5734 19.8778 27.0839 20.5618 28.405C20.5632 28.4077 20.5618 28.4103 20.5632 28.4103C21.0846 29.5164 21.8654 30.4826 22.9567 31.1963C22.962 31.1976 22.9674 31.2016 22.9688 31.2043C23.6918 31.7338 24.5008 32.1491 25.3569 32.4179C24.8274 31.715 23.13 28.1402 22.9029 26.1378L22.9016 26.1324L22.9056 26.1378C24.3476 27.5449 26.131 31.0766 26.3621 31.9273C26.6752 31.0861 26.8432 30.1937 26.8688 29.2973C26.8674 29.2946 26.8688 29.2879 26.8701 29.2839C26.9749 27.9843 26.69 26.7748 26.135 25.6836C26.1336 25.6809 26.131 25.6809 26.131 25.6782Z" fill="#78B11F"/>
<path d="M39.0567 27.1404C39.054 27.1323 39.0527 27.1229 39.0487 27.1162C39.0446 27.1081 39.0393 27.1014 39.0352 27.096C38.9801 27.0248 38.8861 26.9979 38.7987 26.9778C38.0045 26.7896 37.1726 26.6633 36.3353 26.6149L36.3286 26.6122C36.0974 26.58 35.8649 26.5558 35.6338 26.541C34.1461 26.4416 32.6355 26.7668 31.3118 27.4522C31.3118 27.4535 31.3077 27.4522 31.3077 27.4549C30.2017 27.9763 29.2354 28.7571 28.5204 29.8484C28.5191 29.8537 28.5164 29.8591 28.5124 29.8604C27.9829 30.5848 27.569 31.3925 27.2988 32.2486C28.0017 31.7191 31.5779 30.0217 33.5789 29.7946L33.5857 29.7933L33.5803 29.7973C32.1732 31.2393 28.6401 33.0227 27.7907 33.2538C28.632 33.5669 29.5243 33.7349 30.4207 33.7605C30.4234 33.7591 30.4301 33.7605 30.4328 33.7605C31.7351 33.8653 32.9433 33.5817 34.0318 33.0267C34.0345 33.028 34.0359 33.024 34.0386 33.024C35.3878 32.3991 36.5718 31.4059 37.4078 30.1695C37.5395 29.976 37.6617 29.7771 37.776 29.5742C37.7773 29.5742 37.7787 29.5715 37.7787 29.5702C38.2544 28.8781 38.6643 28.1443 39.003 27.3998C39.042 27.3178 39.0796 27.2277 39.0567 27.1404Z" fill="#78B11F"/>
<path d="M26.1497 34.0726C23.5197 33.1722 20.6572 34.5739 19.7554 37.2039C18.855 39.8339 20.2567 42.6965 22.8867 43.5982C25.5167 44.4986 28.3792 43.0969 29.281 40.4669C30.1814 37.8369 28.7797 34.9743 26.1497 34.0726Z" fill="#DF0613"/>
</svg>
