<svg width="32" height="32" viewBox="0 0 32 32" fill="none" xmlns="http://www.w3.org/2000/svg">
<path d="M7 5V12.25C5.652 12.555 4.418 13.133 3.375 13.969L4.625 15.531C5.86546 14.5356 7.40954 13.9952 9 14C12.879 14 16 17.121 16 21H20.563C20.1993 21.6041 20.0048 22.2949 20 23C20 25.2 21.8 27 24 27C26.2 27 28 25.2 28 23C28 21.973 27.582 21.055 26.937 20.344L28.937 15.375L29 15.187V13H24V10C24 9.434 24.434 9 25 9V7C23.355 7 22 8.355 22 10V13H18.687L15.937 5.656L15.687 5H7ZM9 7H14.313L17.063 14.344L17.313 15H26.906L25.313 19H17.75C16.832 15.004 13.27 12 9 12V7ZM9 15C5.7 15 3 17.7 3 21C3 24.3 5.7 27 9 27C12.3 27 15 24.3 15 21C15 17.7 12.3 15 9 15ZM9 17C11.223 17 13 18.777 13 21C13 23.223 11.223 25 9 25C6.777 25 5 23.223 5 21C5 18.777 6.777 17 9 17ZM9 19C8.46957 19 7.96086 19.2107 7.58579 19.5858C7.21071 19.9609 7 20.4696 7 21C7 21.5304 7.21071 22.0391 7.58579 22.4142C7.96086 22.7893 8.46957 23 9 23C9.53043 23 10.0391 22.7893 10.4142 22.4142C10.7893 22.0391 11 21.5304 11 21C11 20.4696 10.7893 19.9609 10.4142 19.5858C10.0391 19.2107 9.53043 19 9 19ZM24 21C25.117 21 26 21.883 26 23C26 24.117 25.117 25 24 25C22.883 25 22 24.117 22 23C22 21.883 22.883 21 24 21Z" fill="#1F6E10"/>
</svg>
