<svg width="18" height="29" viewBox="0 0 18 29" fill="none" xmlns="http://www.w3.org/2000/svg">
<path fill-rule="evenodd" clip-rule="evenodd" d="M3.99094 3.72113C2.83267 4.78789 2 6.47301 2 9C2 11.8903 2.39995 12.5117 2.57651 12.7494C2.69044 12.9027 2.77176 12.983 2.92309 13.1324L2.9231 13.1324C3.03052 13.2385 3.17323 13.3794 3.38791 13.606C3.83668 14.0796 4.32844 14.6847 4.78885 15.6056C5.48814 17.0041 5.90299 18.1359 6.14853 19H11.8515C12.097 18.1359 12.5119 17.0041 13.2111 15.6056C13.6716 14.6847 14.1633 14.0796 14.6121 13.606C14.8268 13.3794 14.9695 13.2385 15.0769 13.1324L15.0769 13.1324L15.0769 13.1324C15.2282 12.983 15.3096 12.9027 15.4235 12.7494C15.6 12.5117 16 11.8903 16 9C16 6.47301 15.1673 4.78789 14.0091 3.72113C12.8239 2.62957 11.0942 2 9 2C6.90577 2 5.17614 2.62957 3.99094 3.72113ZM0 9C0 3 4.02944 0 9 0C13.9706 0 18 3 18 9C18 13.0404 17.2793 13.7607 16.3778 14.6618C15.9406 15.0989 15.4608 15.5785 15 16.5C14.2023 18.0953 13.8288 19.2665 13.654 20.0135C13.5281 20.5512 13.0523 21 12.5 21H5.5C4.94772 21 4.47192 20.5512 4.34603 20.0135C4.17115 19.2665 3.79767 18.0953 3 16.5C2.53924 15.5785 2.05945 15.0989 1.6222 14.6618C0.720663 13.7607 0 13.0404 0 9ZM4.50008 22.9996C4.50008 22.7234 4.72394 22.4996 5.00008 22.4996H13.0001C13.2762 22.4996 13.5001 22.7234 13.5001 22.9996V26.7406C13.5001 26.903 13.4217 27.0549 13.2863 27.1446C12.7949 27.4699 11.5507 28.2481 10.5531 28.4873C10.5177 28.4958 10.4812 28.4995 10.4447 28.4995H7.55496C7.51848 28.4995 7.4825 28.4958 7.44703 28.4873C6.4495 28.2481 5.20526 27.4699 4.71388 27.1446C4.57846 27.0549 4.50008 26.903 4.50008 26.7406V22.9996ZM7.00012 8.24998C7.00012 8.13822 7.08597 7.79034 7.34349 7.46844C7.57567 7.17821 7.87186 7 8.25012 7C8.8024 7 9.25012 6.55228 9.25012 6C9.25012 5.44772 8.8024 5 8.25012 5C7.12838 5 6.29957 5.57178 5.78176 6.21904C5.28928 6.83464 5.00012 7.61174 5.00012 8.24998C5.00012 8.80227 5.44784 9.24998 6.00012 9.24998C6.55241 9.24998 7.00012 8.80227 7.00012 8.24998Z" fill="#1F6E10"/>
</svg>
