<svg width="20" height="59" viewBox="0 0 20 59" fill="none" xmlns="http://www.w3.org/2000/svg">
<circle cx="6" cy="57" r="2" transform="rotate(-90 6 57)" fill="#1F6E10" fill-opacity="0.3"/>
<circle cx="18" cy="57" r="2" transform="rotate(-90 18 57)" fill="#1F6E10" fill-opacity="0.3"/>
<circle cx="6" cy="45" r="2" transform="rotate(-90 6 45)" fill="#1F6E10" fill-opacity="0.3"/>
<circle cx="18" cy="45" r="2" transform="rotate(-90 18 45)" fill="#1F6E10" fill-opacity="0.3"/>
<circle cx="6" cy="33" r="2" transform="rotate(-90 6 33)" fill="#1F6E10" fill-opacity="0.3"/>
<circle cx="18" cy="33" r="2" transform="rotate(-90 18 33)" fill="#1F6E10" fill-opacity="0.3"/>
<circle cx="6" cy="9" r="2" transform="rotate(-90 6 9)" fill="#1F6E10" fill-opacity="0.3"/>
<circle cx="18" cy="9" r="2" transform="rotate(-90 18 9)" fill="#1F6E10" fill-opacity="0.3"/>
<circle cx="6" cy="21" r="2" transform="rotate(-90 6 21)" fill="#1F6E10" fill-opacity="0.3"/>
<circle cx="18" cy="21" r="2" transform="rotate(-90 18 21)" fill="#1F6E10" fill-opacity="0.3"/>
</svg>
