<svg width="20" height="88" viewBox="0 0 20 88" fill="none" xmlns="http://www.w3.org/2000/svg">
<circle cx="2" cy="86" r="2" transform="rotate(-90 2 86)" fill="#1F6E10" fill-opacity="0.3"/>
<circle cx="14" cy="86" r="2" transform="rotate(-90 14 86)" fill="#1F6E10" fill-opacity="0.3"/>
<circle cx="2" cy="74" r="2" transform="rotate(-90 2 74)" fill="#1F6E10" fill-opacity="0.3"/>
<circle cx="14" cy="74" r="2" transform="rotate(-90 14 74)" fill="#1F6E10" fill-opacity="0.3"/>
<circle cx="2" cy="62" r="2" transform="rotate(-90 2 62)" fill="#1F6E10" fill-opacity="0.3"/>
<circle cx="14" cy="62" r="2" transform="rotate(-90 14 62)" fill="#1F6E10" fill-opacity="0.3"/>
<circle cx="2" cy="50" r="2" transform="rotate(-90 2 50)" fill="#1F6E10" fill-opacity="0.3"/>
<circle cx="2" cy="38" r="2" transform="rotate(-90 2 38)" fill="#1F6E10" fill-opacity="0.3"/>
<circle cx="2" cy="26" r="2" transform="rotate(-90 2 26)" fill="#1F6E10" fill-opacity="0.3"/>
<circle cx="2" cy="14" r="2" transform="rotate(-90 2 14)" fill="#1F6E10" fill-opacity="0.3"/>
<circle cx="2" cy="2" r="2" transform="rotate(-90 2 2)" fill="#1F6E10" fill-opacity="0.3"/>
<circle cx="14" cy="38" r="2" transform="rotate(-90 14 38)" fill="#1F6E10" fill-opacity="0.3"/>
<circle cx="14" cy="26" r="2" transform="rotate(-90 14 26)" fill="#1F6E10" fill-opacity="0.3"/>
<circle cx="14" cy="14" r="2" transform="rotate(-90 14 14)" fill="#1F6E10" fill-opacity="0.3"/>
<circle cx="14" cy="2" r="2" transform="rotate(-90 14 2)" fill="#1F6E10" fill-opacity="0.3"/>
<circle cx="14" cy="50" r="2" transform="rotate(-90 14 50)" fill="#1F6E10" fill-opacity="0.3"/>
</svg>
