<svg width="48" height="48" viewBox="0 0 48 48" fill="none" xmlns="http://www.w3.org/2000/svg">
<circle cx="24" cy="24" r="24" fill="#E8F0E7"/>
<path fill-rule="evenodd" clip-rule="evenodd" d="M23.9999 33.6C29.3018 33.6 33.5999 29.302 33.5999 24C33.5999 18.6981 29.3018 14.4 23.9999 14.4C18.698 14.4 14.3999 18.6981 14.3999 24C14.3999 29.302 18.698 33.6 23.9999 33.6ZM28.4484 22.4486C28.9171 21.9799 28.9171 21.2201 28.4484 20.7515C27.9798 20.2829 27.22 20.2829 26.7514 20.7515L22.7999 24.703L21.2484 23.1515C20.7798 22.6829 20.02 22.6829 19.5514 23.1515C19.0827 23.6201 19.0827 24.3799 19.5514 24.8486L21.9514 27.2486C22.42 27.7172 23.1798 27.7172 23.6484 27.2486L28.4484 22.4486Z" fill="#1F6E10"/>
</svg>
